<?xml version="1.0" encoding="utf-8"?>
<!-- Generator: Adobe Illustrator 16.0.4, SVG Export Plug-In . SVG Version: 6.00 Build 0)  -->
<!DOCTYPE svg PUBLIC "-//W3C//DTD SVG 1.1//EN" "http://www.w3.org/Graphics/SVG/1.1/DTD/svg11.dtd">
<svg version="1.1" id="Ebene_1" xmlns="http://www.w3.org/2000/svg" xmlns:xlink="http://www.w3.org/1999/xlink" x="0px" y="0px"
	 width="1000.784px" height="789.282px" viewBox="0 0 1000.784 789.282" style="enable-background:new 0 0 1000.784 789.282;"
	 xml:space="preserve">
<path style="fill-rule:evenodd;clip-rule:evenodd;fill:#FFFFFF;" d="M592.725,0c97.893,0,195.799,15.79,195.799,71.051
	c0,72.872-30.023,155.734-61.012,204.819l-32.06,13.75l-43.392,18.608c-57.453-39.999-116.162-182.424-116.162-259.273
	C535.899,7.904,551.683,0,592.725,0L592.725,0z M538.65,359.296c-59.041-85.752-113.268-233.976-113.268-296.141
	c0-33.149,7.872-44.207,18.94-53.67c-94.736,11.037-208.417,45.781-244.745,89.989c-7.889,11.066-12.627,28.424-12.627,50.528
	c0,32.335,7.958,74.126,21.476,119.294c44.34,12.683,88.678,25.376,133.018,38.062c51.693,14.791,103.389,29.571,155.083,44.357
	c3.302,0.944,6.81,2.251,9.87,3.811l20.892,10.647L538.65,359.296z"/>
<path style="fill-rule:evenodd;clip-rule:evenodd;fill:#FFFFFF;" d="M63.344,321.591c34.764,11.484,69.527,22.972,104.29,34.458
	c52.125,17.224,104.258,34.42,156.381,51.646c12.307,4.066,35.993,3.593,47.929-1.508c18.683-7.985,37.375-15.947,56.061-23.926
	c3.777-1.613,7.555-3.225,11.334-4.835c-36.34-10.393-72.681-20.785-109.02-31.183c-51.675-14.786-103.347-29.579-155.024-44.356
	c-13.565-3.879-38.628-3.858-52.063,0.458c-19.007,6.107-38.01,12.226-57.02,18.326C65.256,320.978,64.3,321.284,63.344,321.591
	L63.344,321.591z M154.04,100.84c-27.882,6.908-55.765,13.817-83.649,20.716c11.897,14.418,23.785,28.843,35.689,43.254
	c13.83,16.742,27.631,33.507,41.462,50.249c1.555,1.882,3.972,3.778,6.791,5.413c-4.693-23.263-7.826-47.099-7.826-70.47
	C146.506,133.657,148.588,116.569,154.04,100.84L154.04,100.84z M595.963,310.694c-23.696-27.86-43.505-63.873-58.144-96.547
	c0.253,22.029,0.509,44.058,0.765,66.087c7.803,15.054,16.188,29.902,25.372,44.184
	C574.625,319.844,585.294,315.269,595.963,310.694L595.963,310.694z M812.032,181.966l32.246,6.847
	c6.93,1.471,20.268-2.453,24.727-8.115c11.546-14.661,23.113-29.305,34.675-43.953c7.852-9.948,15.699-19.9,23.548-29.85
	c-32.957-5.331-65.914-10.664-98.871-15.999c-1.298,21.357-4.596,42.633-9.271,63.464
	C817.005,163.624,814.649,172.833,812.032,181.966L812.032,181.966z M618.055,366.816c1.932,0.552,3.863,1.104,5.795,1.654
	c18.231,5.206,36.461,10.417,54.693,15.62c10.82,3.087,31.64,1.071,41.729-3.898c44.664-21.998,89.336-43.979,133.996-65.984
	c28.94-14.259,57.885-28.511,86.828-42.767c-15.508-3.31-31.025-6.574-46.532-9.887c-11.438-2.444-33.228,0.913-43.926,5.503
	c-46.415,19.912-92.829,39.826-139.247,59.731C680.28,340.131,649.168,353.475,618.055,366.816L618.055,366.816z M561.758,757.129
	c30.987-19.554,61.964-39.123,92.949-58.682c37.746-23.826,75.516-47.614,113.246-71.465c8.186-5.175,16.57-24.434,17.955-33.719
	c8.31-55.711,16.578-111.427,24.902-167.135l3.761-25.17c-22.554,11.104-45.107,22.208-67.66,33.315
	c-23.572,11.61-59.63,15.001-84.909,7.787c-18.235-5.203-36.469-10.415-54.704-15.622c-15.179-4.334-30.359-8.663-45.54-12.993
	c0,59.211,0,118.422,0,177.633C561.758,646.43,561.758,701.78,561.758,757.129L561.758,757.129z M501.392,764.527
	c-0.082-57.843-0.169-115.686-0.262-173.528c-0.094-58.082-0.218-116.164-0.301-174.245c-16.381,6.99-32.771,13.958-49.15,20.951
	c-18.68,7.977-37.366,15.936-56.042,23.918c-25.543,10.917-64.201,12.018-90.538,3.313c-32.718-10.812-65.44-21.613-98.162-32.417
	c1.799,10.478,3.599,20.954,5.4,31.432c9.634,56.031,19.25,112.065,28.875,168.099c1.412,8.22,10.026,24.98,18.062,28.433
	c42.491,18.254,84.962,36.554,127.454,54.807C424.946,731.708,463.175,748.102,501.392,764.527L501.392,764.527z M0,321.223
	c1.217-0.507,2.4-0.924,3.087-1.145c19.018-6.11,38.042-12.198,57.062-18.301c19.007-6.099,38.008-12.217,57.013-18.323
	c17.112-5.498,46.306-5.586,63.588-0.645c51.678,14.778,103.352,29.572,155.027,44.357c51.694,14.791,103.391,29.571,155.085,44.357
	c1.264,0.361,4.093,1.295,6.18,2.359c-1.752,1.149-4.066,2.246-5.141,2.705c-18.696,7.988-37.408,15.938-56.106,23.922
	c-18.683,7.977-37.374,15.938-56.054,23.923c-16.397,7.007-45.041,7.69-61.953,2.102c-52.124-17.226-104.257-34.421-156.381-51.645
	C109.3,357.671,57.192,340.452,5.082,323.244C4.018,322.893,1.921,322.125,0,321.223L0,321.223z M54.29,105.099
	c49.294-12.191,98.581-24.417,147.872-36.619c-7.101,5.66-13.335,11.629-18.5,17.916l-0.449,0.546l-0.41,0.575
	c-12.542,17.595-16.453,41.315-16.453,62.487c0,30.4,5.922,63.074,13.575,93.473l-0.228,0.072
	c-15.535,4.972-37.282-3.542-47.452-15.851c-13.831-16.742-27.633-33.508-41.463-50.25C76.952,160.706,63.145,143.946,49.32,127.2
	C41.591,117.837,41.146,108.35,54.29,105.099L54.29,105.099z M464.356,152.415l10.082-3.228c10.634-3.405,14.975-10.89,7.149-20.01
	c-10.972-12.786-21.952-25.565-32.921-38.354c2.876,16.887,7.598,34.351,11.8,48.734
	C461.72,143.847,463.017,148.134,464.356,152.415L464.356,152.415z M497.866,240.916c-0.169-18.576-0.336-37.152-0.496-55.728
	c-0.108-12.534-8.377-19.229-20.521-15.327l-6.125,1.968C478.754,195.256,487.936,218.406,497.866,240.916L497.866,240.916z
	 M630.417,317.509c-24.591,10.545-49.181,21.091-73.774,31.633c-13.918-19.908-26.522-41.805-37.846-63.997
	c-0.393-33.953-0.792-67.904-1.172-101.856c-0.141-12.576,8.562-20.918,21.191-18.229l0.698,0.149
	c3.066,8.559,6.253,16.811,9.453,24.605C562.993,223.982,592.422,284.903,630.417,317.509L630.417,317.509z M786.633,196.858
	c5.226-15.609,9.615-31.363,13.091-46.844c5.79-25.796,9.401-52.498,9.401-78.963c0-1.145-0.042-2.267-0.096-3.384
	c46.051,7.455,92.102,14.907,138.153,22.355c10.217,1.652,13.436,6.586,6.727,15.088c-11.555,14.64-23.1,29.288-34.655,43.928
	c-11.557,14.643-23.119,29.281-34.661,43.936c-9.172,11.646-30.062,18.301-44.437,15.248L786.633,196.858L786.633,196.858z
	 M837.409,228.784c-0.929,0.36-1.835,0.729-2.716,1.106l-75.73,32.488c7.683-14.7,14.604-30.198,20.678-46.036
	c18.524,3.948,37.048,7.898,55.57,11.853C835.962,228.356,836.694,228.554,837.409,228.784L837.409,228.784z M559.798,370.575
	c1.631-0.988,3.53-1.884,4.479-2.291c46.434-19.904,92.863-39.82,139.294-59.731c46.417-19.905,92.83-39.819,139.244-59.73
	c14.542-6.239,40.424-9.979,55.896-6.673c16.9,3.611,33.813,7.163,50.712,10.781c16.87,3.611,33.746,7.191,50.616,10.801
	c0.202,0.043,0.457,0.102,0.744,0.172c-1.443,0.904-2.929,1.695-3.747,2.099c-44.662,22.011-89.334,43.999-133.998,66.005
	c-44.661,22.005-89.334,43.987-133.998,65.985c-14.518,7.15-40.373,9.621-55.941,5.178c-18.233-5.202-36.465-10.414-54.697-15.62
	c-18.249-5.21-36.5-10.414-54.75-15.621C562.825,371.693,561.253,371.187,559.798,370.575L559.798,370.575z M552.074,786.7
	c-1.048,0.661-3.304,1.875-4.637,1.434c-1.309-0.434-2.504-2.504-3.042-3.637c-1.935-4.084-2.479-9.447-2.479-13.906
	c0-59.837,0-119.674,0-179.511c0-59.836,0-119.673,0-179.51c0-7.204,2.057-15.844,5.736-23.756l4.155,1.748
	c2,0.842,4.105,1.581,6.192,2.178c18.249,5.207,36.499,10.41,54.747,15.62c18.234,5.207,36.466,10.418,54.7,15.621
	c20.519,5.855,51.564,2.916,70.697-6.507c33.882-16.688,67.769-33.366,101.651-50.053l-9.359,62.64
	c-8.321,55.707-16.593,111.422-24.901,167.13c-2.298,15.404-13.627,39.124-26.979,47.564
	c-37.733,23.854-75.508,47.643-113.257,71.472C627.557,739.051,589.825,762.891,552.074,786.7L552.074,786.7z M251.441,678.713
	c-14.557-6.254-27.165-28.05-29.786-43.306c-9.625-56.031-19.24-112.064-28.875-168.095c-3.667-21.33-7.329-42.662-10.99-63.993
	c43.178,14.26,86.359,28.508,129.534,42.776c21.716,7.176,55.454,6.281,76.514-2.72c18.679-7.983,37.367-15.943,56.048-23.92
	c18.699-7.984,37.413-15.935,56.109-23.923c2.836-1.212,5.768-2.732,8.348-4.425l4.694-3.08c4.786,7.523,7.616,16.383,7.627,24.429
	c0.083,59.503,0.211,119.006,0.307,178.509c0.096,59.483,0.186,118.966,0.269,178.45c0.012,8.494-2.999,23.953-14.85,18.857
	c-42.491-18.271-85-36.498-127.496-54.754C336.404,715.266,293.932,696.967,251.441,678.713z"/>
</svg>
